<svg width="36" height="40" viewBox="0 0 36 40" fill="none" xmlns="http://www.w3.org/2000/svg">
<g clip-path="url(#clip0_513_8442)">
<path d="M34.1565 13.6471C31.2834 15.2941 29.5089 18.1176 29.5089 21.2549C29.5089 24.7843 31.7904 28 35.255 29.3333C34.579 31.3726 33.565 33.2549 32.2974 34.9804C30.4384 37.4118 28.4948 39.9216 25.6217 39.9216C22.7487 39.9216 21.9036 38.3529 18.5235 38.3529C15.228 38.3529 14.0449 40 11.3408 40C8.63676 40 6.77771 37.7255 4.66515 34.902C1.87657 30.9804 0.271026 26.4314 0.186523 21.6471C0.186523 13.8824 5.59468 9.72549 11.0028 9.72549C13.8759 9.72549 16.242 11.451 18.0165 11.451C19.7066 11.451 22.4107 9.64706 25.6217 9.64706C29.0018 9.56863 32.2129 11.0588 34.1565 13.6471ZM24.1007 6.35294C25.5372 4.78431 26.2978 2.82353 26.3823 0.784314C26.3823 0.54902 26.3823 0.235294 26.2978 0C23.8472 0.235294 21.5656 1.33333 19.9601 3.05882C18.5235 4.54902 17.6785 6.43137 17.594 8.47059C17.594 8.70588 17.594 8.94118 17.6785 9.17647C17.8475 9.17647 18.101 9.2549 18.27 9.2549C20.5516 9.09804 22.6642 8 24.1007 6.35294Z" fill="black"/>
</g>
<defs>
<clipPath id="clip0_513_8442">
<rect width="35.0685" height="40" fill="white" transform="translate(0.186523)"/>
</clipPath>
</defs>
</svg>
