<svg width="89" height="40" viewBox="0 0 89 40" fill="none" xmlns="http://www.w3.org/2000/svg">
<g clip-path="url(#clip0_513_8437)">
<path d="M11.5873 8.74585C5.38456 8.74585 0.21582 11.7282 0.21582 20.7256C0.21582 27.8536 3.69143 32.3424 11.7475 32.3424C21.2298 32.3424 21.8377 25.2634 21.8377 25.2634H17.243C17.243 25.2634 16.2579 29.0752 11.4672 29.0752C7.56529 29.0752 4.75889 26.088 4.75889 21.9009H22.3182V19.2735C22.3182 15.1313 19.9979 8.74585 11.5873 8.74585ZM11.4271 12.1038C15.1414 12.1038 17.6735 14.6825 17.6735 18.5475H4.86051C4.86051 14.4444 8.16556 12.1038 11.4271 12.1038Z" fill="#E53238"/>
<path d="M22.3152 0.0333252V27.8239C22.3152 29.4014 22.2158 31.6164 22.2158 31.6164H26.5981C26.5981 31.6164 26.7554 30.0256 26.7554 28.5717C26.7554 28.5717 28.9206 32.4105 34.8078 32.4105C41.0073 32.4105 45.2183 27.5327 45.2183 20.5442C45.2183 14.0429 41.3503 8.81396 34.8178 8.81396C28.7006 8.81396 26.7997 12.5576 26.7997 12.5576V0.0333252H22.3152ZM33.6867 12.2513C37.8966 12.2513 40.5736 15.7923 40.5736 20.5442C40.5736 25.6396 37.4817 28.9731 33.7167 28.9731C29.2235 28.9731 26.7997 24.9972 26.7997 20.5895C26.7997 16.4825 28.9746 12.2513 33.6867 12.2513Z" fill="#0064D2"/>
<path d="M56.1088 8.74585C46.7772 8.74585 46.1788 14.5365 46.1788 15.4618H50.8235C50.8235 15.4618 51.067 12.0811 55.7885 12.0811C58.8566 12.0811 61.234 13.6726 61.234 16.7324V17.8214H55.7885C48.5592 17.8214 44.7373 20.2182 44.7373 25.0819C44.7373 29.8685 48.2686 32.4728 53.0407 32.4728C59.5443 32.4728 61.6394 28.4002 61.6394 28.4002C61.6394 30.0201 61.7496 31.6163 61.7496 31.6163H65.8787C65.8787 31.6163 65.7185 29.6377 65.7185 28.3718V17.4301C65.7185 10.2557 60.6123 8.74585 56.1088 8.74585ZM61.234 21.0887V22.5407C61.234 24.4347 60.2028 29.1432 54.1318 29.1432C50.8074 29.1432 49.382 27.2629 49.382 25.0819C49.382 21.1142 54.182 21.0887 61.234 21.0887Z" fill="#F5AF02"/>
<path d="M63.2178 9.6543H68.4431L75.9421 26.6808L83.4239 9.6543H88.1573L74.5292 39.9668H69.5642L73.4967 31.5168L63.2178 9.6543Z" fill="#86B817"/>
</g>
<defs>
<clipPath id="clip0_513_8437">
<rect width="88" height="40" fill="white" transform="translate(0.186523)"/>
</clipPath>
</defs>
</svg>
