<svg width="42" height="40" viewBox="0 0 42 40" fill="none" xmlns="http://www.w3.org/2000/svg">
<path d="M1.04967 29.1304C-0.518664 30.4348 0.00411507 32.8804 3.31505 34.0217C6.71311 35.4348 10.4597 35.8152 14.0756 35.0543C14.2934 35.0543 14.4677 34.9457 14.5984 34.9457V30.5435L11.0696 31.9565C9.71909 32.4457 8.36858 32.6087 7.01807 32.2283C5.97251 31.8478 6.19033 31.087 7.41015 30.4348L14.5984 27.337V22.5543L4.66556 26.7935C3.44574 27.337 2.18236 28.0978 1.04967 29.1304ZM25.0539 9.78261V22.2826C29.2797 24.837 32.5907 22.2826 32.5907 15.5978C32.5907 8.75 30.6302 5.65217 24.9232 3.20652C21.9173 1.90217 18.8242 0.76087 15.731 0V37.2826L22.9628 40V8.6413C22.9628 7.22826 22.9628 6.19565 23.7906 6.57609C24.9232 6.95652 25.0539 8.36957 25.0539 9.78261ZM38.4719 26.1957C35.466 24.8913 32.2857 24.4022 29.149 24.7826C27.4936 24.8913 25.9252 25.4348 24.4876 26.087L24.1826 26.1957V31.25L30.8916 28.1522C32.2421 27.663 33.5927 27.5 34.9432 27.8804C35.9887 28.2609 35.7709 29.0217 34.5511 29.6739L24.2262 34.4565V39.3478L38.4719 32.7717C39.5175 32.2826 40.4324 31.6304 41.2601 30.5978C42.0007 29.2935 41.6957 27.4457 38.4719 26.1957Z" fill="#0070D1"/>
</svg>
