<svg width="1440" height="1024" viewBox="0 0 1440 1024" fill="none" xmlns="http://www.w3.org/2000/svg">
<g opacity="0.5">
<ellipse opacity="0.2" cx="1463.57" cy="889.021" rx="116.39" ry="111.599" fill="url(#paint0_linear_513_8068)"/>
<g filter="url(#filter0_b_513_8068)">
<path d="M1549 493.463C1549 933.426 1176.54 1292.93 713.5 1292.93C250.465 1292.93 -122 933.426 -122 493.463C-122 53.4997 250.465 -306 713.5 -306C1176.54 -306 1549 53.4997 1549 493.463Z" stroke="url(#paint1_radial_513_8068)" stroke-width="80"/>
</g>
<ellipse opacity="0.2" cx="123.469" cy="276.778" rx="163.269" ry="156.548" fill="#FA8443"/>
<g filter="url(#filter1_b_513_8068)">
<path d="M1392.41 490.064C1392.41 847.723 1089.65 1139.79 713.5 1139.79C337.349 1139.79 34.5928 847.723 34.5928 490.064C34.5928 132.406 337.349 -159.663 713.5 -159.663C1089.65 -159.663 1392.41 132.406 1392.41 490.064Z" stroke="url(#paint2_radial_513_8068)" stroke-width="60"/>
</g>
<path d="M1240.62 490.061C1240.62 766.724 1006.22 993.843 713.499 993.843C420.775 993.843 186.374 766.724 186.374 490.061C186.374 213.398 420.775 -13.7207 713.499 -13.7207C1006.22 -13.7207 1240.62 213.398 1240.62 490.061Z" stroke="url(#paint3_radial_513_8068)" stroke-width="80"/>
</g>
<defs>
<filter id="filter0_b_513_8068" x="-172" y="-356" width="1771" height="1698.93" filterUnits="userSpaceOnUse" color-interpolation-filters="sRGB">
<feFlood flood-opacity="0" result="BackgroundImageFix"/>
<feGaussianBlur in="BackgroundImageFix" stdDeviation="5"/>
<feComposite in2="SourceAlpha" operator="in" result="effect1_backgroundBlur_513_8068"/>
<feBlend mode="normal" in="SourceGraphic" in2="effect1_backgroundBlur_513_8068" result="shape"/>
</filter>
<filter id="filter1_b_513_8068" x="-5.40723" y="-199.663" width="1437.81" height="1379.45" filterUnits="userSpaceOnUse" color-interpolation-filters="sRGB">
<feFlood flood-opacity="0" result="BackgroundImageFix"/>
<feGaussianBlur in="BackgroundImageFix" stdDeviation="5"/>
<feComposite in2="SourceAlpha" operator="in" result="effect1_backgroundBlur_513_8068"/>
<feBlend mode="normal" in="SourceGraphic" in2="effect1_backgroundBlur_513_8068" result="shape"/>
</filter>
<linearGradient id="paint0_linear_513_8068" x1="1579.96" y1="1000.62" x2="1356.96" y2="768.046" gradientUnits="userSpaceOnUse">
<stop stop-color="#C34242"/>
<stop offset="0.750282" stop-color="#FF0000"/>
</linearGradient>
<radialGradient id="paint1_radial_513_8068" cx="0" cy="0" r="1" gradientUnits="userSpaceOnUse" gradientTransform="translate(688.877 530.189) rotate(88.7378) scale(1117.81 1165.75)">
<stop offset="0.654764" stop-color="#E2F6FC" stop-opacity="0.36"/>
<stop offset="1" stop-color="#D67B48" stop-opacity="0.84"/>
</radialGradient>
<radialGradient id="paint2_radial_513_8068" cx="0" cy="0" r="1" gradientUnits="userSpaceOnUse" gradientTransform="translate(693.561 519.802) rotate(88.7378) scale(905.106 943.924)">
<stop offset="0.654764" stop-color="#E2F6FC" stop-opacity="0.36"/>
<stop offset="1" stop-color="#48B7D6" stop-opacity="0.84"/>
</radialGradient>
<radialGradient id="paint3_radial_513_8068" cx="0" cy="0" r="1" gradientUnits="userSpaceOnUse" gradientTransform="translate(697.549 513.851) rotate(88.7378) scale(724.085 755.139)">
<stop offset="0.654764" stop-color="#E2F6FC" stop-opacity="0.36"/>
<stop offset="1" stop-color="#48B7D6" stop-opacity="0"/>
</radialGradient>
</defs>
</svg>
