<svg width="130" height="40" viewBox="0 0 130 40" fill="none" xmlns="http://www.w3.org/2000/svg">
<path d="M19.7946 0C9.525 0 1.11195 8.101 0.3125 18.3961L10.7907 22.8282C11.6785 22.207 12.7511 21.843 13.905 21.843C14.0084 21.843 14.1114 21.8467 14.2135 21.8525L18.8732 14.9429C18.8732 14.9099 18.8727 14.8778 18.8727 14.8452C18.8727 10.6862 22.1797 7.30257 26.2455 7.30257C30.3108 7.30257 33.6178 10.6862 33.6178 14.8452C33.6178 19.0042 30.3108 22.3883 26.2455 22.3883C26.1894 22.3883 26.1337 22.3869 26.078 22.3856L19.4322 27.2368C19.4358 27.3249 19.4388 27.4149 19.4388 27.5044C19.4388 30.6267 16.9565 33.1658 13.905 33.1658C11.2264 33.1658 8.98673 31.21 8.47939 28.6198L0.986003 25.4505C3.30614 33.8454 10.8451 40 19.7946 40C30.5919 40 39.3443 31.0454 39.3443 20.0007C39.3443 8.95414 30.5914 0 19.7946 0Z" fill="black"/>
<path d="M12.5636 30.3469L10.1621 29.3319C10.5877 30.2384 11.3239 30.9975 12.3015 31.4143C14.4148 32.315 16.8512 31.2891 17.732 29.1253C18.1584 28.0791 18.1611 26.9239 17.7381 25.875C17.3161 24.8257 16.5197 24.0073 15.4958 23.5706C14.4798 23.1379 13.3913 23.1537 12.435 23.5231L14.9155 24.5725C16.4742 25.2371 17.2114 27.0682 16.5617 28.6628C15.9134 30.2578 14.1223 31.012 12.5636 30.3469Z" fill="black"/>
<path d="M31.157 14.8452C31.157 12.0742 28.9536 9.81946 26.2445 9.81946C23.5359 9.81946 21.332 12.0742 21.332 14.8452C21.332 17.6166 23.5359 19.8704 26.2445 19.8704C28.9536 19.87 31.157 17.6162 31.157 14.8452ZM22.5624 14.8366C22.5624 12.7514 24.2148 11.0614 26.2529 11.0614C28.2911 11.0614 29.9435 12.7514 29.9435 14.8366C29.9435 16.9217 28.2911 18.6117 26.2529 18.6117C24.2148 18.6117 22.5624 16.9213 22.5624 14.8366Z" fill="black"/>
<path d="M60.2225 13.6842L58.9126 16.0397C57.9037 15.3186 56.5363 14.8846 55.3427 14.8846C53.9784 14.8846 53.1344 15.4624 53.1344 16.4973C53.1344 17.7546 54.6338 18.0471 56.8625 18.8654C59.2582 19.7321 60.6352 20.7508 60.6352 22.9955C60.6352 26.0667 58.2745 27.7916 54.8813 27.7916C53.2276 27.7916 51.2327 27.3548 49.6992 26.4004L50.6547 23.789C51.9005 24.4622 53.3907 24.8614 54.7191 24.8614C56.5098 24.8614 57.361 24.1855 57.361 23.1863C57.361 22.0429 56.063 21.6993 53.9678 20.9895C51.5801 20.1739 49.9255 19.1037 49.9255 16.6193C49.9255 13.8176 52.1188 12.2085 55.2746 12.2085C57.4741 12.2085 59.2418 12.9215 60.2225 13.6842Z" fill="black"/>
<path d="M70.4624 15.173V27.5334H67.3781V15.173H62.9014V12.4667H74.9259V15.173H70.4624Z" fill="black"/>
<path d="M81.4271 15.1649V18.5598H87.3295V21.2662H81.4271V24.8022H88.2753V27.5334H78.3438V12.4667H88.2753V15.1649H81.4271Z" fill="black"/>
<path d="M95.1592 24.6083L94.1843 27.5339H90.9512L96.4731 12.4672H99.5777L105.256 27.5335H101.913L100.917 24.6078L95.1592 24.6083ZM98.0079 16.061L95.9967 22.0936H100.061L98.0079 16.061Z" fill="black"/>
<path d="M121.085 18.2904L117.054 27.0944H115.314L111.349 18.369V27.5334H108.396V12.4667H111.342L116.292 23.3428L121.066 12.4667H124.038V27.5334H121.085L121.085 18.2904Z" fill="black"/>
<path d="M130 14.3674C130 15.6622 129.051 16.4693 127.963 16.4693C126.871 16.4693 125.92 15.6622 125.92 14.3674C125.92 13.073 126.871 12.2714 127.963 12.2714C129.052 12.2714 130 13.073 130 14.3674ZM126.262 14.3674C126.262 15.4506 127.025 16.1311 127.963 16.1311C128.897 16.1311 129.657 15.4506 129.657 14.3674C129.657 13.2809 128.897 12.6109 127.963 12.6109C127.028 12.6109 126.262 13.2891 126.262 14.3674ZM127.991 13.2963C128.519 13.2963 128.697 13.582 128.697 13.8908C128.697 14.1739 128.533 14.3638 128.333 14.4605L128.807 15.3679H128.419L128.02 14.5636H127.609V15.3679H127.286V13.2963H127.991ZM127.612 14.2602H127.971C128.204 14.2602 128.342 14.1106 128.342 13.9225C128.342 13.7326 128.243 13.6105 127.97 13.6105H127.611V14.2602H127.612Z" fill="black"/>
</svg>
