<svg width="205" height="40" viewBox="0 0 205 40" fill="none" xmlns="http://www.w3.org/2000/svg">
<path fill-rule="evenodd" clip-rule="evenodd" d="M113.926 25.4308C113.926 25.7441 113.861 26.1096 113.796 26.3707C113.213 27.7284 111.657 28.6161 109.843 28.6161C108.223 28.6161 106.992 27.8851 106.992 26.3185C106.992 23.9164 110.232 23.2898 113.99 23.2898V25.4308H113.926ZM119.758 21.2532C119.758 17.3368 117.684 13.8381 110.621 13.8381C106.992 13.8381 104.075 14.6736 102.52 15.4046L103.687 18.59C105.501 17.7545 107.51 17.2845 109.584 17.2323C113.213 17.2323 113.796 18.8511 113.796 19.8955V20.1566C105.955 20.1566 101.03 22.3498 101.03 26.7885C101.03 29.5039 103.557 32.0626 107.964 32.0626C110.621 32.0626 112.889 31.2271 114.25 29.8172H114.379C114.379 29.8172 115.286 32.8459 120.212 31.6971C119.952 30.4438 119.823 29.0861 119.823 27.5195V21.2532H119.758ZM0 8.45947L5.96198 28.0939C6.93404 31.2793 8.61894 32.4804 13.5441 31.6971L16.7195 21.2532C17.4971 18.6422 18.0803 16.8146 18.5988 14.1514H18.6636C19.0524 16.8146 19.5708 18.6422 20.2189 21.2532L22.163 28.5117C22.8758 31.0182 24.6904 32.5848 29.5507 31.6971L37.1327 8.51169H30.9764L28.3842 18.5378C27.6713 21.4621 27.0233 23.7597 26.5697 26.4229C26.1161 23.7597 25.5328 21.5665 24.82 18.7467L22.163 8.51169H15.7474L12.8312 18.4856C12.0536 21.5143 11.2759 23.9686 10.7575 26.5274H10.6927C10.1742 24.1253 9.5262 21.0443 8.81336 18.12L6.48041 8.45947H0ZM48.4087 25.4308C48.4087 25.7441 48.4087 26.1096 48.279 26.3707C47.6958 27.7284 46.1405 28.6161 44.326 28.6161C42.7059 28.6161 41.4746 27.8851 41.4746 26.3185C41.4746 23.9164 44.7148 23.2898 48.4735 23.2898V25.4308H48.4087ZM54.3058 21.2532C54.3058 17.3368 52.2321 13.8381 45.1685 13.8381C41.5394 13.8381 38.6232 14.6736 37.0679 15.4046L38.2344 18.59C40.0489 17.7545 42.0579 17.2845 44.1316 17.2323C47.7606 17.2323 48.3439 18.8511 48.3439 19.8955V20.1566C40.5026 20.1566 35.5774 22.3498 35.5774 26.7885C35.5774 29.5039 38.1048 32.0626 42.5115 32.0626C45.1685 32.0626 47.4366 31.2271 48.7975 29.8172H48.9271C48.9271 29.8172 49.8344 32.8459 54.7595 31.6971C54.5002 30.4438 54.3706 29.0861 54.3706 27.5195V21.2532H54.3058ZM63.3136 26.7362V8.45947H57.4812V31.6449H63.3136V26.7362ZM137.709 8.51169V25.5874C137.709 27.9373 138.227 29.6083 139.458 30.6005C140.495 31.4882 142.18 32.0626 144.189 32.0626C145.939 32.0626 147.624 31.8015 148.401 31.5404L148.337 27.8328C147.753 27.9895 147.04 28.0417 146.133 28.0417C144.124 28.0417 143.476 27.0496 143.476 24.9086V18.4334H148.596V13.9947H143.476V8.45947L137.709 8.51169ZM122.609 14.2558V31.6971H128.636V22.7676C128.636 22.2976 128.701 21.8798 128.766 21.4621C129.219 19.5822 130.969 18.3811 133.561 18.3811C134.274 18.3811 134.728 18.4334 135.311 18.4856V13.8903C134.857 13.8381 134.404 13.7858 134.015 13.7858C131.747 13.7858 129.219 14.9347 128.118 17.4934H127.988V14.2036L122.609 14.2558ZM66.7482 14.2558V31.6971H72.5806V21.4621C72.5806 20.9921 72.6454 20.4699 72.8398 20.0522C73.2934 19.0078 74.5247 17.8067 76.404 17.8067C78.8018 17.8067 79.9035 19.4255 79.9035 21.7232V31.6449H85.8006V21.3054C85.8006 20.8355 85.8654 20.261 86.0598 19.8955C86.5135 18.6422 88.004 17.7545 89.6241 17.7545C92.0218 17.7545 93.1883 19.3211 93.1883 22.0887V31.6449H99.0855V21.4099C99.0855 16.0313 95.6508 13.8381 91.8274 13.8381C90.0777 13.8381 88.7816 14.2036 87.5503 14.778C86.5135 15.3002 85.6062 16.0313 84.8286 16.9712H84.7638C83.7917 15.0391 81.3939 13.7858 78.8018 13.8381C76.2096 13.7336 73.7471 14.778 72.5158 16.6057H72.451V14.2558H66.7482Z" fill="#0071DC"/>
<path fill-rule="evenodd" clip-rule="evenodd" d="M180.155 13.4726C181.322 13.4726 182.294 12.9504 182.424 12.376L183.525 1.8799C183.525 0.835509 182.035 0 180.155 0C178.276 0 176.786 0.835509 176.786 1.8799L177.952 12.376C178.017 13.0026 178.989 13.4726 180.155 13.4726ZM173.092 16.7624C173.675 15.9269 173.61 15.0392 173.027 14.6214L162.334 8.61619C161.233 8.09399 159.548 8.72063 158.64 10.0261C157.668 11.3316 157.863 12.846 158.964 13.3159L170.824 17.7546C171.536 17.9634 172.573 17.5457 173.092 16.7624ZM187.154 16.7102C187.737 17.5457 188.71 17.9634 189.487 17.7024L201.282 13.2637C202.383 12.7415 202.578 11.2794 201.606 9.97389C200.633 8.66841 199.013 8.04177 197.912 8.56397L187.219 14.6214C186.636 15.0392 186.571 15.9269 187.154 16.7102ZM180.155 26.5274C181.322 26.5274 182.294 27.0496 182.424 27.624L183.525 38.1201C183.525 39.1645 182.035 40 180.155 40C178.276 40 176.786 39.1645 176.786 38.1201L177.952 27.624C178.017 26.9974 178.989 26.5274 180.155 26.5274ZM187.154 23.2898C187.737 22.4543 188.71 22.0366 189.487 22.2454L201.282 26.6841C202.383 27.2063 202.578 28.6684 201.606 29.9739C200.633 31.2794 199.013 31.906 197.912 31.3838L187.219 25.3786C186.636 25.0131 186.571 24.0731 187.154 23.2898ZM173.092 23.2898C173.675 24.0731 173.61 25.0131 173.027 25.4308L162.334 31.436C161.233 31.9582 159.548 31.3316 158.64 30.0261C157.668 28.7206 157.863 27.2585 158.964 26.7363L170.824 22.2976C171.536 22.0366 172.573 22.4543 173.092 23.2898ZM203.809 30.4961H203.938C204.068 30.4961 204.198 30.4439 204.198 30.3916C204.198 30.2872 204.133 30.2872 204.003 30.2872H203.874V30.4961H203.809ZM203.809 30.9661H203.55V30.1305H203.938C204.133 30.1305 204.198 30.1305 204.327 30.1828C204.392 30.235 204.457 30.2872 204.457 30.3394C204.457 30.4439 204.392 30.4961 204.263 30.5483C204.392 30.6005 204.457 30.6527 204.457 30.7572C204.457 30.9138 204.522 30.9138 204.522 30.9661H204.263C204.198 30.9138 204.198 30.8616 204.198 30.7572C204.198 30.6527 204.133 30.6527 204.003 30.6527H203.874L203.809 30.9661ZM203.938 29.8695C203.485 29.8695 203.161 30.1828 203.161 30.5483C203.161 30.9138 203.485 31.2272 203.938 31.2272C204.392 31.2272 204.716 30.9138 204.716 30.5483C204.781 30.1828 204.392 29.8695 203.938 29.8695ZM203.938 29.7128C204.522 29.7128 204.975 30.0783 204.975 30.5483C204.975 31.0183 204.522 31.3838 203.938 31.3838C203.355 31.3838 202.837 31.0183 202.837 30.5483C202.902 30.0783 203.355 29.7128 203.938 29.7128Z" fill="#F3B53B"/>
</svg>
